<svg xmlns="http://www.w3.org/2000/svg" width="100" height="100" viewBox="0 0 24 24"><defs><linearGradient id="br" x1="0" y1="0" x2="0" y2="1"><stop offset="0" stop-color="#FFB8CB"/><stop offset="1" stop-color="#F0709A"/></linearGradient></defs> <path d="M12 4.2c-1-1.4-3.4-1.6-4.6-.2-1.8-.2-3.2 1.4-2.8 3.2-1.6.8-2 3-.8 4.2-1 1.4-.4 3.6 1.2 4.2.2 1.8 2 2.8 3.6 2.2.8 1.4 2.6 1.6 3.4.4.8 1.2 2.6 1 3.4-.4 1.6.6 3.4-.4 3.6-2.2 1.6-.6 2.2-2.8 1.2-4.2 1.2-1.2.8-3.4-.8-4.2.4-1.8-1-3.4-2.8-3.2-1.2-1.4-3.6-1.2-4.6.2z" fill="url(#br)"/> <g stroke="#D9507E" stroke-width="1.1" fill="none" stroke-linecap="round"> <path d="M12 4.8v13"/> <path d="M8.4 8.2c1 .2 1.6 1 1.6 2"/><path d="M6.4 12.4c1.2-.4 2.6 0 3.2 1"/> <path d="M15.6 8.2c-1 .2-1.6 1-1.6 2"/><path d="M17.6 12.4c-1.2-.4-2.6 0-3.2 1"/> </g> <path d="M7.4 6.4c.6-.5 1.4-.6 2.1-.3" stroke="#FFE3EC" stroke-width="1" fill="none" stroke-linecap="round"/></svg>
