<svg xmlns="http://www.w3.org/2000/svg" width="100" height="100" viewBox="0 0 24 24"><defs><linearGradient id="ca" x1="0" y1="0" x2="0" y2="1"><stop offset="0" stop-color="#FF8A7A"/><stop offset="1" stop-color="#E5484D"/></linearGradient></defs> <rect x="3" y="4.4" width="18" height="16.6" rx="3" fill="#fff" stroke="#C9D3DD" stroke-width=".6"/> <path d="M6 4.4h12a3 3 0 0 1 3 3v2H3v-2a3 3 0 0 1 3-3z" fill="url(#ca)"/> <path d="M8 2.8v3.4M16 2.8v3.4" stroke="#2B3440" stroke-width="1.6" stroke-linecap="round"/> <g fill="#C3CCD5"><rect x="5.6" y="11.6" width="2.6" height="2.2" rx=".6"/><rect x="10.7" y="11.6" width="2.6" height="2.2" rx=".6"/><rect x="5.6" y="15.8" width="2.6" height="2.2" rx=".6"/><rect x="10.7" y="15.8" width="2.6" height="2.2" rx=".6"/><rect x="15.8" y="15.8" width="2.6" height="2.2" rx=".6"/></g> <rect x="15.8" y="11.6" width="2.6" height="2.2" rx=".6" fill="#22A35F"/></svg>
